<svg width="334" height="56" viewBox="0 0 334 56" fill="none" xmlns="http://www.w3.org/2000/svg">
<path d="M58.2358 41L48.2472 6.09091H56.3097L62.0881 30.3466H62.3778L68.7528 6.09091H75.6562L82.0142 30.3977H82.321L88.0994 6.09091H96.1619L86.1733 41H78.9801L72.3324 18.1761H72.0597L65.429 41H58.2358ZM104.629 41.4943C102.959 41.4943 101.47 41.2045 100.163 40.625C98.8565 40.0341 97.8224 39.1648 97.0611 38.017C96.3111 36.858 95.9361 35.4148 95.9361 33.6875C95.9361 32.233 96.2031 31.0114 96.7372 30.0227C97.2713 29.0341 97.9986 28.2386 98.919 27.6364C99.8395 27.0341 100.885 26.5795 102.055 26.2727C103.237 25.9659 104.476 25.75 105.771 25.625C107.294 25.4659 108.521 25.3182 109.453 25.1818C110.385 25.0341 111.061 24.8182 111.482 24.5341C111.902 24.25 112.112 23.8295 112.112 23.2727V23.1705C112.112 22.0909 111.771 21.2557 111.089 20.6648C110.419 20.0739 109.464 19.7784 108.226 19.7784C106.919 19.7784 105.879 20.0682 105.107 20.6477C104.334 21.2159 103.822 21.9318 103.572 22.7955L96.8565 22.25C97.1974 20.6591 97.8679 19.2841 98.8679 18.125C99.8679 16.9545 101.158 16.0568 102.737 15.4318C104.328 14.7955 106.169 14.4773 108.26 14.4773C109.714 14.4773 111.107 14.6477 112.436 14.9886C113.777 15.3295 114.964 15.858 115.999 16.5739C117.044 17.2898 117.868 18.2102 118.47 19.3352C119.072 20.4489 119.374 21.7841 119.374 23.3409V41H112.487V37.3693H112.283C111.862 38.1875 111.3 38.9091 110.595 39.5341C109.891 40.1477 109.044 40.6307 108.055 40.983C107.067 41.3239 105.925 41.4943 104.629 41.4943ZM106.709 36.483C107.777 36.483 108.72 36.2727 109.538 35.8523C110.357 35.4205 110.999 34.8409 111.464 34.1136C111.93 33.3864 112.163 32.5625 112.163 31.642V28.8636C111.936 29.0114 111.624 29.1477 111.226 29.2727C110.839 29.3864 110.402 29.4943 109.913 29.5966C109.425 29.6875 108.936 29.7727 108.447 29.8523C107.959 29.9205 107.516 29.983 107.118 30.0398C106.266 30.1648 105.521 30.3636 104.885 30.6364C104.249 30.9091 103.754 31.2784 103.402 31.7443C103.05 32.1989 102.874 32.767 102.874 33.4489C102.874 34.4375 103.232 35.1932 103.947 35.7159C104.675 36.2273 105.595 36.483 106.709 36.483ZM138.933 14.8182V20.2727H123.166V14.8182H138.933ZM126.746 8.54545H134.007V32.9545C134.007 33.625 134.109 34.1477 134.314 34.5227C134.518 34.8864 134.803 35.142 135.166 35.2898C135.541 35.4375 135.973 35.5114 136.462 35.5114C136.803 35.5114 137.143 35.483 137.484 35.4261C137.825 35.358 138.087 35.3068 138.268 35.2727L139.411 40.6761C139.047 40.7898 138.536 40.9205 137.876 41.0682C137.217 41.2273 136.416 41.3239 135.473 41.358C133.723 41.4261 132.189 41.1932 130.871 40.6591C129.564 40.125 128.547 39.2955 127.82 38.1705C127.092 37.0455 126.734 35.625 126.746 33.9091V8.54545ZM155.314 41.5114C152.621 41.5114 150.303 40.9659 148.359 39.875C146.428 38.7727 144.939 37.2159 143.893 35.2045C142.848 33.1818 142.325 30.7898 142.325 28.0284C142.325 25.3352 142.848 22.9716 143.893 20.9375C144.939 18.9034 146.411 17.3182 148.308 16.1818C150.217 15.0455 152.456 14.4773 155.024 14.4773C156.751 14.4773 158.359 14.7557 159.848 15.3125C161.348 15.858 162.655 16.6818 163.768 17.7841C164.893 18.8864 165.768 20.2727 166.393 21.9432C167.018 23.6023 167.331 25.5455 167.331 27.7727V29.767H145.223V25.267H160.496C160.496 24.2216 160.268 23.2955 159.814 22.4886C159.359 21.6818 158.729 21.0511 157.922 20.5966C157.126 20.1307 156.2 19.8977 155.143 19.8977C154.041 19.8977 153.064 20.1534 152.212 20.6648C151.371 21.1648 150.712 21.8409 150.234 22.6932C149.757 23.5341 149.513 24.4716 149.501 25.5057V29.7841C149.501 31.0795 149.74 32.1989 150.217 33.142C150.706 34.0852 151.393 34.8125 152.28 35.3239C153.166 35.8352 154.217 36.0909 155.433 36.0909C156.24 36.0909 156.979 35.9773 157.649 35.75C158.32 35.5227 158.893 35.1818 159.371 34.7273C159.848 34.2727 160.212 33.7159 160.462 33.0568L167.178 33.5C166.837 35.1136 166.138 36.5227 165.081 37.7273C164.036 38.9205 162.683 39.8523 161.024 40.5227C159.376 41.1818 157.473 41.5114 155.314 41.5114ZM172.07 41V14.8182H179.109V19.3864H179.382C179.859 17.7614 180.661 16.5341 181.786 15.7045C182.911 14.8636 184.206 14.4432 185.672 14.4432C186.036 14.4432 186.428 14.4659 186.848 14.5114C187.268 14.5568 187.638 14.6193 187.956 14.6989V21.142C187.615 21.0398 187.143 20.9489 186.541 20.8693C185.939 20.7898 185.388 20.75 184.888 20.75C183.82 20.75 182.865 20.983 182.024 21.4489C181.195 21.9034 180.536 22.5398 180.047 23.358C179.57 24.1761 179.331 25.1193 179.331 26.1875V41H172.07ZM191.71 41V14.8182H198.631V19.4375H198.938C199.483 17.9034 200.392 16.6932 201.665 15.8068C202.938 14.9205 204.46 14.4773 206.233 14.4773C208.028 14.4773 209.557 14.9261 210.818 15.8239C212.08 16.7102 212.92 17.9148 213.341 19.4375H213.614C214.148 17.9375 215.114 16.7386 216.511 15.8409C217.92 14.9318 219.585 14.4773 221.506 14.4773C223.949 14.4773 225.932 15.2557 227.455 16.8125C228.989 18.358 229.756 20.5511 229.756 23.392V41H222.511V24.8239C222.511 23.3693 222.125 22.2784 221.352 21.5511C220.58 20.8239 219.614 20.4602 218.455 20.4602C217.136 20.4602 216.108 20.8807 215.369 21.7216C214.631 22.5511 214.261 23.6477 214.261 25.0114V41H207.222V24.6705C207.222 23.3864 206.852 22.3636 206.114 21.6023C205.386 20.8409 204.426 20.4602 203.233 20.4602C202.426 20.4602 201.699 20.6648 201.051 21.0739C200.415 21.4716 199.909 22.0341 199.534 22.7614C199.159 23.4773 198.972 24.3182 198.972 25.2841V41H191.71ZM247.423 41.5114C244.73 41.5114 242.412 40.9659 240.469 39.875C238.537 38.7727 237.048 37.2159 236.003 35.2045C234.957 33.1818 234.435 30.7898 234.435 28.0284C234.435 25.3352 234.957 22.9716 236.003 20.9375C237.048 18.9034 238.52 17.3182 240.418 16.1818C242.327 15.0455 244.565 14.4773 247.134 14.4773C248.861 14.4773 250.469 14.7557 251.957 15.3125C253.457 15.858 254.764 16.6818 255.878 17.7841C257.003 18.8864 257.878 20.2727 258.503 21.9432C259.128 23.6023 259.44 25.5455 259.44 27.7727V29.767H237.332V25.267H252.605C252.605 24.2216 252.378 23.2955 251.923 22.4886C251.469 21.6818 250.838 21.0511 250.031 20.5966C249.236 20.1307 248.31 19.8977 247.253 19.8977C246.151 19.8977 245.173 20.1534 244.321 20.6648C243.48 21.1648 242.821 21.8409 242.344 22.6932C241.866 23.5341 241.622 24.4716 241.611 25.5057V29.7841C241.611 31.0795 241.849 32.1989 242.327 33.142C242.815 34.0852 243.503 34.8125 244.389 35.3239C245.276 35.8352 246.327 36.0909 247.543 36.0909C248.349 36.0909 249.088 35.9773 249.759 35.75C250.429 35.5227 251.003 35.1818 251.48 34.7273C251.957 34.2727 252.321 33.7159 252.571 33.0568L259.287 33.5C258.946 35.1136 258.247 36.5227 257.19 37.7273C256.145 38.9205 254.793 39.8523 253.134 40.5227C251.486 41.1818 249.582 41.5114 247.423 41.5114ZM271.44 6.09091V41H264.179V6.09091H271.44ZM289.087 41.5114C286.439 41.5114 284.149 40.9489 282.217 39.8239C280.297 38.6875 278.814 37.108 277.768 35.0852C276.723 33.0511 276.2 30.6932 276.2 28.0114C276.2 25.3068 276.723 22.9432 277.768 20.9205C278.814 18.8864 280.297 17.3068 282.217 16.1818C284.149 15.0455 286.439 14.4773 289.087 14.4773C291.734 14.4773 294.018 15.0455 295.939 16.1818C297.871 17.3068 299.359 18.8864 300.405 20.9205C301.45 22.9432 301.973 25.3068 301.973 28.0114C301.973 30.6932 301.45 33.0511 300.405 35.0852C299.359 37.108 297.871 38.6875 295.939 39.8239C294.018 40.9489 291.734 41.5114 289.087 41.5114ZM289.121 35.8864C290.325 35.8864 291.331 35.5455 292.138 34.8636C292.945 34.1705 293.553 33.2273 293.962 32.0341C294.382 30.8409 294.592 29.483 294.592 27.9602C294.592 26.4375 294.382 25.0795 293.962 23.8864C293.553 22.6932 292.945 21.75 292.138 21.0568C291.331 20.3636 290.325 20.017 289.121 20.017C287.905 20.017 286.882 20.3636 286.053 21.0568C285.234 21.75 284.615 22.6932 284.195 23.8864C283.786 25.0795 283.581 26.4375 283.581 27.9602C283.581 29.483 283.786 30.8409 284.195 32.0341C284.615 33.2273 285.234 34.1705 286.053 34.8636C286.882 35.5455 287.905 35.8864 289.121 35.8864ZM313.956 25.8636V41H306.695V14.8182H313.615V19.4375H313.922C314.501 17.9148 315.473 16.7102 316.837 15.8239C318.2 14.9261 319.854 14.4773 321.797 14.4773C323.615 14.4773 325.2 14.875 326.553 15.6705C327.905 16.4659 328.956 17.6023 329.706 19.0795C330.456 20.5455 330.831 22.2955 330.831 24.3295V41H323.57V25.625C323.581 24.0227 323.172 22.7727 322.342 21.875C321.513 20.9659 320.371 20.5114 318.916 20.5114C317.939 20.5114 317.075 20.7216 316.325 21.142C315.587 21.5625 315.007 22.1761 314.587 22.983C314.178 23.7784 313.967 24.7386 313.956 25.8636Z" fill="#121217"/>
<path d="M20 0L37.3205 42H2.67949L20 0Z" fill="#EE5353"/>
</svg>
